<svg xmlns="http://www.w3.org/2000/svg" width="32" height="32" viewBox="0 0 32 32" fill="none"><path d="M14.2689 29.7433L13.1323 31.7378L0.821777 10.97C2.92016 4.58397 8.9355 0 16.0175 0C18.623 0 21.0711 0.612362 23.2394 1.71461C21.5782 2.71189 20.4591 4.54898 20.4591 6.63101C20.4591 9.16793 22.1028 11.3025 24.3761 12.0548L14.2689 29.7433Z" fill="#735CFF"></path><path d="M24.3586 12.0371L14.2689 29.7431L13.1323 31.7377C14.059 31.9126 15.0208 32.0001 16.0001 32.0001C24.8307 32.0001 32.0002 24.8267 32.0002 15.9912C32.0002 13.8567 31.5805 11.8097 30.8286 9.95508C29.7969 11.4073 28.1007 12.3345 26.1772 12.3345C25.5652 12.3345 24.9706 12.2296 24.411 12.0546L24.3586 12.0371Z" fill="#532EE3"></path><path d="M13.1149 31.72C13.0624 31.7025 12.9925 31.7025 12.94 31.685C5.5607 30.2503 0 23.7593 0 15.9735C0 14.2239 0.279779 12.5268 0.804374 10.9521L13.1149 31.72Z" fill="#A2A0FF"></path></svg>